<svg width="17" height="12" viewBox="0 0 17 12" fill="none" xmlns="http://www.w3.org/2000/svg">
<path fill-rule="evenodd" clip-rule="evenodd" d="M12.2158 11.7601C12.2158 11.7601 11.7056 11.1581 11.2805 10.6261C13.1369 10.1081 13.8455 8.96012 13.8455 8.96012C13.2645 9.33812 12.7118 9.60412 12.2158 9.78612C11.5072 10.0801 10.827 10.2761 10.1609 10.3881C8.80046 10.6401 7.55337 10.5701 6.49051 10.3741C5.68274 10.2201 4.98834 9.99612 4.40731 9.77212C4.08137 9.64612 3.72709 9.49212 3.3728 9.29612C3.33029 9.26812 3.28777 9.25412 3.24526 9.22612C3.21691 9.21212 3.20274 9.19812 3.18857 9.18412C2.93349 9.04412 2.79177 8.94612 2.79177 8.94612C2.79177 8.94612 3.472 10.0661 5.27177 10.5981C4.84663 11.1301 4.32229 11.7601 4.32229 11.7601C1.1904 11.6621 0 9.63212 0 9.63212C0 5.12412 2.04069 1.47012 2.04069 1.47012C4.08137 -0.0418843 6.02286 0.000116349 6.02286 0.000116349L6.16457 0.168116C3.61371 0.896116 2.43749 2.00212 2.43749 2.00212C2.43749 2.00212 2.74926 1.83412 3.2736 1.59612C4.78994 0.938117 5.99451 0.756117 6.49051 0.714117C6.57554 0.700117 6.6464 0.686117 6.73143 0.686117C7.59589 0.574117 8.57371 0.546117 9.59406 0.658117C10.9403 0.812117 12.3858 1.20412 13.8597 2.00212C13.8597 2.00212 12.7401 0.952117 10.331 0.224117L10.5294 0.000116349C10.5294 0.000116349 12.4709 -0.0418843 14.5115 1.47012C14.5115 1.47012 16.5522 5.12412 16.5522 9.63212C16.5522 9.63212 15.3477 11.6621 12.2158 11.7601ZM6.02518 5.47612C5.22377 5.47612 4.59109 6.19684 4.59109 7.07612C4.59109 7.9554 5.23783 8.67612 6.02518 8.67612C6.82659 8.67612 7.45928 7.9554 7.45928 7.07612C7.47334 6.19684 6.82659 5.47612 6.02518 5.47612ZM11.157 5.47612C10.3556 5.47612 9.72289 6.19684 9.72289 7.07612C9.72289 7.9554 10.3696 8.67612 11.157 8.67612C11.9584 8.67612 12.5911 7.9554 12.5911 7.07612C12.5911 6.19684 11.9584 5.47612 11.157 5.47612Z" fill="white"/>
</svg>
