<svg width="31" height="29" viewBox="0 0 31 29" fill="none" xmlns="http://www.w3.org/2000/svg">
<path fill-rule="evenodd" clip-rule="evenodd" d="M12.8965 4.35644C10.4912 1.77008 6.62229 1.77008 4.21696 4.35644C1.77383 6.98346 1.77383 11.2707 4.21697 13.8977L15.5 26.0299L26.783 13.8977C29.2262 11.2707 29.2262 6.98346 26.783 4.35644C24.3777 1.77008 20.5088 1.77008 18.1035 4.35644L16.3677 6.2229C16.1424 6.46514 15.8285 6.60247 15.5 6.60247C15.1715 6.60247 14.8576 6.46514 14.6323 6.2229L12.8965 4.35644ZM2.48164 2.69891C5.82829 -0.899636 11.2852 -0.899636 14.6319 2.69891L15.5 3.6324L16.3681 2.69891C19.7148 -0.899635 25.1717 -0.899636 28.5184 2.69891C31.8272 6.2568 31.8272 11.9973 28.5184 15.5552L16.3677 28.6204C16.1424 28.8627 15.8285 29 15.5 29C15.1715 29 14.8576 28.8627 14.6323 28.6204L2.48164 15.5552C-0.827212 11.9973 -0.827213 6.2568 2.48164 2.69891Z" fill="white"/>
</svg>
