<svg width="31" height="31" viewBox="0 0 31 31" fill="none" xmlns="http://www.w3.org/2000/svg">
<path d="M8.9586 8.95863C8.25179 8.95863 7.6788 9.53162 7.6788 10.2384C7.6788 10.9453 8.25179 11.5182 8.9586 11.5182H14.0778C14.7846 11.5182 15.3576 10.9453 15.3576 10.2384C15.3576 9.53162 14.7846 8.95863 14.0778 8.95863H8.9586Z" fill="white"/>
<path d="M7.6788 20.4769C7.6788 19.7701 8.25179 19.1971 8.9586 19.1971H19.197C19.9038 19.1971 20.4768 19.7701 20.4768 20.4769C20.4768 21.1837 19.9038 21.7567 19.197 21.7567H8.9586C8.25179 21.7567 7.6788 21.1837 7.6788 20.4769Z" fill="white"/>
<path d="M8.9586 14.0778C8.25179 14.0778 7.6788 14.6508 7.6788 15.3577C7.6788 16.0645 8.25179 16.6375 8.9586 16.6375H21.7566C22.4634 16.6375 23.0364 16.0645 23.0364 15.3577C23.0364 14.6508 22.4634 14.0778 21.7566 14.0778H8.9586Z" fill="white"/>
<path fill-rule="evenodd" clip-rule="evenodd" d="M15.3576 0C6.87583 0 0 6.87585 0 15.3577C0 23.8394 6.87583 30.7153 15.3576 30.7153C17.8264 30.7153 20.1625 30.1318 22.2322 29.0942C22.2449 29.095 22.2599 29.0962 22.2776 29.0981C22.425 29.1137 22.6456 29.1624 22.9521 29.2579C23.4459 29.4116 24.0057 29.6345 24.6346 29.8849C24.7989 29.9503 24.9678 30.0176 25.1415 30.086C25.9305 30.3967 26.8253 30.7334 27.6278 30.8953C28.0316 30.9768 28.4833 31.0297 28.9289 30.9818C29.3837 30.9329 29.9125 30.7682 30.3402 30.3406C30.7681 29.9129 30.9328 29.3841 30.9818 28.9292C31.0297 28.4837 30.9768 28.0319 30.8953 27.6281C30.7333 26.8257 30.3965 25.931 30.0857 25.1421C30.0175 24.9688 29.9504 24.8003 29.8851 24.6365C29.6345 24.0072 29.4114 23.4469 29.2576 22.9528C29.1621 22.6463 29.1134 22.4257 29.0978 22.2783L29.0955 22.2542L29.0939 22.2326C30.1317 20.1628 30.7152 17.8266 30.7152 15.3577C30.7152 6.87585 23.8394 0 15.3576 0ZM2.5596 15.3577C2.5596 8.28949 8.28946 2.55961 15.3576 2.55961C22.4257 2.55961 28.1556 8.28949 28.1556 15.3577C28.1556 17.4547 27.6522 19.4304 26.7609 21.1741C26.5095 21.6659 26.5141 22.186 26.5525 22.5479C26.5936 22.9359 26.6968 23.3385 26.8137 23.7138C27.0001 24.3123 27.2722 24.9948 27.5268 25.6334C27.5874 25.7854 27.647 25.9348 27.7042 26.0801C28.0216 26.8859 28.275 27.5835 28.3863 28.1346C28.4103 28.2538 28.4247 28.3524 28.4326 28.4326C28.3522 28.4247 28.2534 28.4104 28.134 28.3863C27.5828 28.275 26.8851 28.0216 26.0793 27.7043C25.9337 27.647 25.7839 27.5873 25.6316 27.5266C24.9932 27.2721 24.3112 27.0003 23.7132 26.814C23.338 26.6972 22.9354 26.5939 22.5476 26.5527C22.1861 26.5144 21.6658 26.5095 21.1741 26.7609C19.4304 27.6523 17.4546 28.1557 15.3576 28.1557C8.28946 28.1557 2.5596 22.4258 2.5596 15.3577ZM29.0928 22.1843C29.0933 22.1803 29.0934 22.1782 29.0933 22.1782C29.0933 22.1781 29.0934 22.1779 29.0933 22.1782C29.0933 22.1784 29.0932 22.1791 29.0931 22.1796L29.0928 22.1843Z" fill="white"/>
</svg>
